<?xml version="1.0" encoding="UTF-8" standalone="no"?>
<svg version="1.1" xmlns="http://www.w3.org/2000/svg" xmlns:xlink="http://www.w3.org/1999/xlink">
    <symbol viewBox="0 0 17 17" id="svg-icon-timer">
        <path d="M8.500,17.000 C3.813,17.000 -0.000,13.187 -0.000,8.500 C-0.000,3.813 3.813,0.000 8.500,0.000 C13.187,0.000 17.000,3.813 17.000,8.500 C17.000,13.187 13.187,17.000 8.500,17.000 ZM8.500,1.290 C4.524,1.290 1.289,4.524 1.289,8.500 C1.289,12.476 4.524,15.710 8.500,15.710 C12.476,15.710 15.710,12.476 15.710,8.500 C15.710,4.524 12.476,1.290 8.500,1.290 ZM7.627,9.502 L7.627,4.655 L8.916,4.655 L8.916,8.820 L11.676,10.701 L10.950,11.766 L7.627,9.502 Z"/>
    </symbol>
    <symbol viewBox="0 0 14 18" id="svg-icon-map-point">
        <path d="M7.133,0.000 C3.347,0.000 0.266,2.973 0.266,6.627 C0.266,7.580 0.469,8.490 0.867,9.332 C2.584,12.957 5.875,16.785 6.844,17.871 C6.916,17.953 7.022,17.999 7.133,17.999 C7.244,17.999 7.350,17.953 7.423,17.871 C8.391,16.785 11.682,12.958 13.400,9.332 C13.798,8.490 14.000,7.580 14.000,6.627 C13.999,2.973 10.919,0.000 7.133,0.000 ZM7.133,10.069 C5.166,10.069 3.566,8.525 3.566,6.627 C3.566,4.729 5.166,3.185 7.133,3.185 C9.100,3.185 10.700,4.729 10.700,6.627 C10.700,8.525 9.100,10.069 7.133,10.069 Z"/>
    </symbol>
    <symbol viewBox="0 0 16 16" id="svg-icon-search">
        <path d="M15.645,13.904 L12.347,10.606 C13.142,9.459 13.539,8.180 13.539,6.769 C13.539,5.852 13.361,4.976 13.005,4.139 C12.650,3.303 12.169,2.581 11.563,1.976 C10.957,1.370 10.236,0.889 9.400,0.533 C8.563,0.178 7.686,-0.000 6.769,-0.000 C5.853,-0.000 4.976,0.178 4.139,0.533 C3.303,0.889 2.581,1.370 1.976,1.976 C1.370,2.581 0.889,3.303 0.533,4.139 C0.177,4.976 -0.001,5.852 -0.001,6.769 C-0.001,7.686 0.177,8.563 0.533,9.399 C0.889,10.236 1.370,10.957 1.976,11.563 C2.581,12.169 3.303,12.649 4.139,13.005 C4.976,13.361 5.853,13.539 6.769,13.539 C8.180,13.539 9.459,13.141 10.606,12.347 L13.904,15.635 C14.135,15.879 14.423,16.000 14.770,16.000 C15.103,16.000 15.392,15.879 15.635,15.635 C15.879,15.392 16.001,15.103 16.001,14.770 C16.001,14.430 15.882,14.142 15.645,13.904 ZM9.813,9.813 C8.970,10.656 7.955,11.077 6.769,11.077 C5.583,11.077 4.569,10.656 3.726,9.813 C2.883,8.969 2.461,7.955 2.461,6.769 C2.461,5.583 2.883,4.569 3.726,3.726 C4.569,2.883 5.583,2.461 6.769,2.461 C7.955,2.461 8.970,2.883 9.813,3.726 C10.656,4.569 11.077,5.583 11.077,6.769 C11.077,7.955 10.656,8.969 9.813,9.813 Z"/>
    </symbol>
    <symbol viewBox="0 0 16 12" id="svg-icon-email">
        <path d="M13.886,12.000 L2.139,12.000 C0.973,12.000 0.025,11.127 0.025,10.055 L0.025,1.946 C0.025,0.873 0.973,-0.000 2.139,-0.000 L13.886,-0.000 C15.052,-0.000 16.000,0.873 16.000,1.946 L16.000,10.055 C16.000,11.127 15.052,12.000 13.886,12.000 ZM2.139,10.812 L13.886,10.812 C14.340,10.812 14.709,10.472 14.709,10.055 L14.709,3.086 L8.383,7.162 C8.271,7.234 8.142,7.270 8.013,7.270 C7.883,7.270 7.754,7.234 7.642,7.162 L1.316,3.086 L1.316,10.055 C1.316,10.472 1.685,10.812 2.139,10.812 ZM13.886,1.188 L2.139,1.188 C1.789,1.188 1.494,1.391 1.375,1.675 L8.012,5.951 L14.650,1.675 C14.531,1.391 14.236,1.188 13.886,1.188 Z"/>
    </symbol>
    <symbol viewBox="0 0 16 15" id="svg-icon-excel">
        <path d="M15.500,12.998 L9.000,12.998 L9.000,14.499 C9.000,14.648 8.934,14.790 8.819,14.885 C8.729,14.960 8.615,15.000 8.500,15.000 C8.470,15.000 8.438,14.997 8.408,14.991 L0.408,13.490 C0.171,13.446 -0.000,13.238 -0.000,12.998 L-0.000,1.988 C-0.000,1.747 0.171,1.541 0.408,1.497 L8.408,-0.005 C8.554,-0.032 8.705,0.007 8.819,0.102 C8.934,0.197 9.000,0.338 9.000,0.487 L9.000,1.988 L15.500,1.988 C15.776,1.988 16.000,2.212 16.000,2.489 L16.000,12.498 C16.000,12.774 15.776,12.998 15.500,12.998 ZM8.000,1.090 L1.000,2.404 L1.000,12.583 L8.000,13.896 L8.000,1.090 ZM15.000,2.989 L9.000,2.989 L9.000,3.990 L10.500,3.990 C10.776,3.990 11.000,4.214 11.000,4.491 C11.000,4.767 10.776,4.991 10.500,4.991 L9.000,4.991 L9.000,5.992 L10.500,5.992 C10.776,5.992 11.000,6.216 11.000,6.492 C11.000,6.768 10.776,6.993 10.500,6.993 L9.000,6.993 L9.000,7.994 L10.500,7.994 C10.776,7.994 11.000,8.218 11.000,8.494 C11.000,8.770 10.776,8.995 10.500,8.995 L9.000,8.995 L9.000,9.995 L10.500,9.995 C10.776,9.995 11.000,10.220 11.000,10.496 C11.000,10.772 10.776,10.996 10.500,10.996 L9.000,10.996 L9.000,11.997 L15.000,11.997 L15.000,2.989 ZM12.500,3.990 L13.500,3.990 C13.776,3.990 14.000,4.214 14.000,4.491 C14.000,4.767 13.776,4.991 13.500,4.991 L12.500,4.991 C12.224,4.991 12.000,4.767 12.000,4.491 C12.000,4.214 12.224,3.990 12.500,3.990 ZM12.500,5.992 L13.500,5.992 C13.776,5.992 14.000,6.216 14.000,6.492 C14.000,6.768 13.776,6.993 13.500,6.993 L12.500,6.993 C12.224,6.993 12.000,6.768 12.000,6.492 C12.000,6.216 12.224,5.992 12.500,5.992 ZM12.500,7.994 L13.500,7.994 C13.776,7.994 14.000,8.218 14.000,8.494 C14.000,8.770 13.776,8.995 13.500,8.995 L12.500,8.995 C12.224,8.995 12.000,8.770 12.000,8.494 C12.000,8.218 12.224,7.994 12.500,7.994 ZM12.500,9.995 L13.500,9.995 C13.776,9.995 14.000,10.220 14.000,10.496 C14.000,10.772 13.776,10.996 13.500,10.996 L12.500,10.996 C12.224,10.996 12.000,10.772 12.000,10.496 C12.000,10.220 12.224,9.995 12.500,9.995 ZM2.671,5.115 C2.878,4.933 3.193,4.953 3.377,5.162 L4.624,6.589 L6.105,4.684 C6.275,4.466 6.589,4.425 6.807,4.597 C7.025,4.766 7.064,5.080 6.894,5.299 L5.295,7.357 L6.877,9.166 C7.059,9.374 7.038,9.689 6.830,9.871 C6.734,9.954 6.617,9.995 6.500,9.995 C6.361,9.995 6.223,9.937 6.124,9.824 L4.670,8.161 L3.394,9.803 C3.296,9.929 3.148,9.995 3.000,9.995 C2.893,9.995 2.785,9.961 2.693,9.890 C2.475,9.721 2.436,9.406 2.605,9.188 L3.999,7.394 L2.624,5.821 C2.442,5.613 2.463,5.297 2.671,5.115 Z"/>
    </symbol>
    <symbol viewBox="0 0 44 44" id="svg-icon-slider-arrow">
        <path d="M22.000,44.000 C9.869,44.000 0.000,34.131 0.000,22.000 C0.000,9.869 9.869,-0.000 22.000,-0.000 C34.131,-0.000 44.000,9.869 44.000,22.000 C44.000,34.131 34.131,44.000 22.000,44.000 ZM22.000,1.692 C10.803,1.692 1.692,10.803 1.692,22.000 C1.692,33.197 10.803,42.308 22.000,42.308 C33.197,42.308 42.308,33.197 42.308,22.000 C42.308,10.803 33.197,1.692 22.000,1.692 ZM27.077,13.063 L27.077,31.124 L11.883,21.836 L27.077,13.063 ZM25.385,15.994 L15.194,21.877 L25.385,28.107 L25.385,15.994 Z"/>
    </symbol>
    <symbol viewBox="0 0 22 22" id="svg-icon-phone">
        <path d="M21.955,17.048 C21.893,16.860 21.497,16.584 20.767,16.219 C20.570,16.105 20.288,15.948 19.924,15.750 C19.559,15.552 19.228,15.370 18.931,15.203 C18.634,15.036 18.356,14.875 18.095,14.719 C18.054,14.688 17.923,14.597 17.705,14.445 C17.486,14.294 17.301,14.182 17.150,14.109 C16.999,14.036 16.850,14.000 16.704,14.000 C16.496,14.000 16.236,14.148 15.923,14.445 C15.611,14.742 15.324,15.065 15.064,15.414 C14.803,15.764 14.527,16.087 14.236,16.383 C13.944,16.681 13.704,16.829 13.517,16.829 C13.423,16.829 13.306,16.803 13.165,16.751 C13.025,16.699 12.918,16.654 12.844,16.618 C12.772,16.581 12.647,16.509 12.469,16.399 C12.292,16.290 12.193,16.230 12.173,16.219 C10.745,15.427 9.521,14.521 8.500,13.500 C7.479,12.479 6.572,11.254 5.780,9.827 C5.770,9.806 5.710,9.707 5.601,9.530 C5.491,9.353 5.418,9.228 5.382,9.155 C5.345,9.082 5.301,8.975 5.249,8.835 C5.197,8.694 5.171,8.577 5.171,8.483 C5.171,8.296 5.320,8.056 5.616,7.764 C5.913,7.472 6.236,7.196 6.585,6.936 C6.935,6.676 7.257,6.389 7.554,6.077 C7.851,5.764 8.000,5.504 8.000,5.295 C8.000,5.149 7.963,5.001 7.890,4.850 C7.818,4.698 7.705,4.514 7.554,4.295 C7.403,4.076 7.312,3.946 7.281,3.904 C7.125,3.644 6.963,3.365 6.796,3.068 C6.629,2.771 6.447,2.440 6.249,2.076 C6.051,1.711 5.895,1.430 5.780,1.232 C5.416,0.503 5.140,0.107 4.952,0.044 C4.879,0.013 4.770,-0.003 4.624,-0.003 C4.343,-0.003 3.975,0.049 3.522,0.154 C3.069,0.258 2.712,0.367 2.452,0.482 C1.931,0.700 1.378,1.336 0.795,2.388 C0.264,3.367 -0.002,4.337 -0.002,5.295 C-0.002,5.576 0.016,5.850 0.053,6.116 C0.089,6.381 0.154,6.681 0.248,7.014 C0.342,7.348 0.417,7.595 0.475,7.757 C0.532,7.918 0.639,8.207 0.795,8.624 C0.951,9.041 1.045,9.296 1.076,9.390 C1.441,10.411 1.873,11.322 2.373,12.125 C3.196,13.458 4.319,14.836 5.741,16.258 C7.163,17.681 8.541,18.804 9.875,19.627 C10.677,20.126 11.589,20.559 12.610,20.924 C12.704,20.955 12.959,21.049 13.376,21.205 C13.792,21.361 14.081,21.468 14.243,21.526 C14.404,21.583 14.652,21.658 14.985,21.752 C15.319,21.846 15.618,21.911 15.884,21.948 C16.150,21.984 16.423,22.003 16.704,22.003 C17.663,22.003 18.632,21.737 19.611,21.206 C20.663,20.622 21.299,20.070 21.518,19.549 C21.633,19.289 21.742,18.932 21.846,18.478 C21.950,18.025 22.002,17.658 22.002,17.377 C22.002,17.230 21.987,17.121 21.955,17.048 Z"/>
    </symbol>

    <symbol viewBox="0 0 26 17" id="svg-icon-payment-card">
        <path d="M23.400,17.000 L2.600,17.000 C1.164,17.000 0.000,15.829 0.000,14.385 L0.000,2.616 C0.000,1.171 1.164,0.000 2.600,0.000 L23.400,0.000 C24.836,0.000 26.000,1.171 26.000,2.616 L26.000,14.385 C26.000,15.829 24.836,17.000 23.400,17.000 ZM24.700,2.616 C24.700,1.895 24.117,1.308 23.400,1.308 L2.600,1.308 C1.883,1.308 1.300,1.895 1.300,2.616 L1.300,14.385 C1.300,15.106 1.883,15.692 2.600,15.692 L23.400,15.692 C24.117,15.692 24.700,15.106 24.700,14.385 L24.700,2.616 ZM21.450,14.385 C20.948,14.385 20.495,14.188 20.150,13.875 C19.805,14.188 19.352,14.385 18.850,14.385 C17.773,14.385 16.900,13.506 16.900,12.423 C16.900,11.340 17.773,10.462 18.850,10.462 C19.352,10.462 19.805,10.658 20.150,10.971 C20.495,10.658 20.948,10.462 21.450,10.462 C22.527,10.462 23.400,11.340 23.400,12.423 C23.400,13.506 22.527,14.385 21.450,14.385 ZM18.850,11.769 C18.492,11.769 18.200,12.063 18.200,12.423 C18.200,12.784 18.492,13.077 18.850,13.077 C19.208,13.077 19.500,12.784 19.500,12.423 C19.500,12.063 19.208,11.769 18.850,11.769 ZM21.450,11.769 C21.092,11.769 20.800,12.063 20.800,12.423 C20.800,12.784 21.092,13.077 21.450,13.077 C21.808,13.077 22.100,12.784 22.100,12.423 C22.100,12.063 21.808,11.769 21.450,11.769 ZM2.600,11.769 L15.600,11.769 L15.600,13.077 L2.600,13.077 L2.600,11.769 ZM7.800,7.846 L3.900,7.846 C3.182,7.846 2.600,7.261 2.600,6.538 L2.600,3.923 C2.600,3.201 3.182,2.616 3.900,2.616 L7.800,2.616 C8.518,2.616 9.100,3.201 9.100,3.923 L9.100,6.538 C9.100,7.261 8.518,7.846 7.800,7.846 ZM7.800,3.923 L3.900,3.923 L3.900,6.538 L7.800,6.538 L7.800,3.923 Z"/>
    </symbol>
    <symbol viewBox="0 0 26 17" id="svg-icon-payment-card">
        <path d="M23.400,17.000 L2.600,17.000 C1.164,17.000 0.000,15.829 0.000,14.385 L0.000,2.616 C0.000,1.171 1.164,0.000 2.600,0.000 L23.400,0.000 C24.836,0.000 26.000,1.171 26.000,2.616 L26.000,14.385 C26.000,15.829 24.836,17.000 23.400,17.000 ZM24.700,2.616 C24.700,1.895 24.117,1.308 23.400,1.308 L2.600,1.308 C1.883,1.308 1.300,1.895 1.300,2.616 L1.300,14.385 C1.300,15.106 1.883,15.692 2.600,15.692 L23.400,15.692 C24.117,15.692 24.700,15.106 24.700,14.385 L24.700,2.616 ZM21.450,14.385 C20.948,14.385 20.495,14.188 20.150,13.875 C19.805,14.188 19.352,14.385 18.850,14.385 C17.773,14.385 16.900,13.506 16.900,12.423 C16.900,11.340 17.773,10.462 18.850,10.462 C19.352,10.462 19.805,10.658 20.150,10.971 C20.495,10.658 20.948,10.462 21.450,10.462 C22.527,10.462 23.400,11.340 23.400,12.423 C23.400,13.506 22.527,14.385 21.450,14.385 ZM18.850,11.769 C18.492,11.769 18.200,12.063 18.200,12.423 C18.200,12.784 18.492,13.077 18.850,13.077 C19.208,13.077 19.500,12.784 19.500,12.423 C19.500,12.063 19.208,11.769 18.850,11.769 ZM21.450,11.769 C21.092,11.769 20.800,12.063 20.800,12.423 C20.800,12.784 21.092,13.077 21.450,13.077 C21.808,13.077 22.100,12.784 22.100,12.423 C22.100,12.063 21.808,11.769 21.450,11.769 ZM2.600,11.769 L15.600,11.769 L15.600,13.077 L2.600,13.077 L2.600,11.769 ZM7.800,7.846 L3.900,7.846 C3.182,7.846 2.600,7.261 2.600,6.538 L2.600,3.923 C2.600,3.201 3.182,2.616 3.900,2.616 L7.800,2.616 C8.518,2.616 9.100,3.201 9.100,3.923 L9.100,6.538 C9.100,7.261 8.518,7.846 7.800,7.846 ZM7.800,3.923 L3.900,3.923 L3.900,6.538 L7.800,6.538 L7.800,3.923 Z"/>
    </symbol>
    <symbol viewBox="0 0 431.85822 255.91599" id="svg-icon-payment-cash">
        <path d="M215.92911,71.97637A55.98162,55.98162,0,1,0,271.91073,127.958,55.98439,55.98439,0,0,0,215.92911,71.97637Zm0,95.96849A39.98687,39.98687,0,1,1,255.916,127.958,39.98635,39.98635,0,0,1,215.92911,167.94487Z"/>
        <path d="M47.98425,47.98425H63.979V31.9895H39.98687a7.99777,7.99777,0,0,0-7.99737,7.99737V63.979H47.98425Z"/>
        <path d="M47.98425,191.937H31.9895v23.99212a7.99527,7.99527,0,0,0,7.99737,7.99737H63.979V207.93174H47.98425Z"/>
        <path d="M0,7.99737V247.91861A7.99527,7.99527,0,0,0,7.99737,255.916H423.86085a7.99278,7.99278,0,0,0,7.99737-7.99737V7.99737A7.99527,7.99527,0,0,0,423.86085,0H7.99737A7.99777,7.99777,0,0,0,0,7.99737Zm15.99475,7.99737H415.86348V239.92124H15.99475Z"/>
        <path d="M391.87135,87.97112A48.0317,48.0317,0,0,1,343.8871,39.98687a7.99527,7.99527,0,0,0-7.99737-7.99737H95.96849a7.99777,7.99777,0,0,0-7.99737,7.99737A48.02668,48.02668,0,0,1,39.98687,87.97112a7.99777,7.99777,0,0,0-7.99737,7.99737v63.979a7.99527,7.99527,0,0,0,7.99737,7.99737,48.0317,48.0317,0,0,1,47.98425,47.98425,7.99527,7.99527,0,0,0,7.99737,7.99737H335.88973a7.99278,7.99278,0,0,0,7.99737-7.99737,48.03672,48.03672,0,0,1,47.98425-47.98425,7.99278,7.99278,0,0,0,7.99737-7.99737v-63.979A7.99527,7.99527,0,0,0,391.87135,87.97112ZM383.874,152.446a64.13418,64.13418,0,0,0-55.48569,55.48569H103.46994A64.13026,64.13026,0,0,0,47.98425,152.446V103.46994a64.12634,64.12634,0,0,0,55.48569-55.48569H328.38829A64.13026,64.13026,0,0,0,383.874,103.46994Z"/>
        <path d="M391.87135,31.9895H367.87923V47.98425H383.874V63.979h15.99475V39.98687A7.99527,7.99527,0,0,0,391.87135,31.9895Z"/>
        <path d="M383.874,207.93174H367.87923v15.99475h23.99212a7.99278,7.99278,0,0,0,7.99737-7.99737V191.937H383.874Z"/>
    </symbol>
    <symbol viewBox="0 0 26 23" id="svg-icon-payment-invoice">
        <path d="M24.027,18.623 C24.552,18.623 25.025,18.951 25.235,19.443 L25.892,21.112 C26.076,21.550 26.023,22.042 25.761,22.398 C25.524,22.781 25.104,23.000 24.683,23.000 L1.299,23.000 C0.878,23.000 0.458,22.781 0.221,22.398 C-0.015,22.015 -0.068,21.550 0.090,21.112 L0.747,19.471 C0.957,18.979 1.430,18.650 1.955,18.650 L2.428,18.650 L2.428,7.762 L1.325,7.762 C0.826,7.762 0.405,7.406 0.300,6.887 C0.195,6.367 0.431,5.874 0.878,5.656 L11.861,0.266 C12.597,-0.090 13.411,-0.090 14.095,0.266 L25.025,5.656 C25.472,5.874 25.708,6.394 25.603,6.887 C25.498,7.379 25.078,7.735 24.578,7.735 L23.448,7.735 L23.448,18.623 L24.027,18.623 ZM24.605,6.640 L13.648,1.251 C13.227,1.032 12.755,1.032 12.308,1.251 L1.351,6.640 L13.753,6.640 C14.042,6.640 14.278,6.887 14.278,7.188 C14.278,7.488 14.042,7.735 13.753,7.735 L3.479,7.735 L3.479,18.650 L5.581,18.650 L5.581,11.018 C5.581,9.814 6.527,8.829 7.683,8.829 C8.840,8.829 9.785,9.814 9.785,11.018 L9.785,18.650 L10.836,18.650 L10.836,11.018 C10.836,9.814 11.782,8.829 12.938,8.829 C14.095,8.829 15.040,9.814 15.040,11.018 L15.040,18.650 L16.091,18.650 L16.091,11.018 C16.091,9.814 17.037,8.829 18.193,8.829 C19.350,8.829 20.295,9.814 20.295,11.018 L20.295,18.623 L22.397,18.623 L22.397,7.406 C22.397,7.379 22.424,7.324 22.424,7.297 C22.397,7.270 22.397,7.242 22.397,7.188 C22.397,6.887 22.634,6.640 22.923,6.640 L24.605,6.640 ZM6.632,11.018 L6.632,18.650 L8.734,18.650 L8.734,11.018 C8.734,10.416 8.261,9.923 7.683,9.923 C7.105,9.923 6.632,10.416 6.632,11.018 ZM11.887,11.018 L11.887,18.650 L13.989,18.650 L13.989,11.018 C13.989,10.416 13.516,9.923 12.938,9.923 C12.360,9.923 11.887,10.416 11.887,11.018 ZM17.142,11.018 L17.142,18.650 L19.244,18.650 L19.244,11.018 C19.244,10.416 18.772,9.923 18.193,9.923 C17.615,9.923 17.142,10.416 17.142,11.018 ZM1.982,19.745 C1.877,19.745 1.772,19.799 1.719,19.908 L1.062,21.523 C1.010,21.660 1.062,21.769 1.088,21.796 C1.115,21.851 1.167,21.933 1.299,21.933 L24.683,21.933 C24.788,21.933 24.867,21.823 24.894,21.796 C24.920,21.769 24.972,21.660 24.972,21.550 L24.315,19.908 C24.263,19.799 24.158,19.745 24.053,19.745 L1.982,19.745 ZM16.853,7.735 L16.118,7.735 C15.829,7.735 15.592,7.488 15.592,7.188 C15.592,6.887 15.829,6.640 16.118,6.640 L16.853,6.640 C17.142,6.640 17.379,6.887 17.379,7.188 C17.379,7.488 17.142,7.735 16.853,7.735 Z"/>
    </symbol>
    <symbol viewBox="0 0 512 512" id="svg-icon-instagram">
        <path d="m75 512h362c41.355469 0 75-33.644531 75-75v-362c0-41.355469-33.644531-75-75-75h-362c-41.355469 0-75 33.644531-75 75v362c0 41.355469 33.644531 75 75 75zm-45-437c0-24.8125 20.1875-45 45-45h362c24.8125 0 45 20.1875 45 45v362c0 24.8125-20.1875 45-45 45h-362c-24.8125 0-45-20.1875-45-45zm0 0"/>
        <path d="m256 391c74.4375 0 135-60.5625 135-135s-60.5625-135-135-135-135 60.5625-135 135 60.5625 135 135 135zm0-240c57.898438 0 105 47.101562 105 105s-47.101562 105-105 105-105-47.101562-105-105 47.101562-105 105-105zm0 0"/>
        <path d="m406 151c24.8125 0 45-20.1875 45-45s-20.1875-45-45-45-45 20.1875-45 45 20.1875 45 45 45zm0-60c8.269531 0 15 6.730469 15 15s-6.730469 15-15 15-15-6.730469-15-15 6.730469-15 15-15zm0 0"/>
    </symbol>
    <symbol viewBox="0 0 38 32" id="svg-icon-scroll-top">
        <path d="M19.000,5.570 L2.850,21.334 L-0.000,18.548 L19.000,0.000 L38.000,18.548 L35.150,21.334 L19.000,5.570 ZM38.000,29.215 L35.150,32.000 L19.000,16.237 L2.850,32.000 L-0.000,29.215 L19.000,10.667 L38.000,29.215 Z"></path>
    </symbol>
    <symbol viewBox="0 0 247.46 247.46" id="svg-icon-filter">
        <path d="M246.744,13.984c-1.238-2.626-3.881-4.301-6.784-4.301H7.5c-2.903,0-5.545,1.675-6.784,4.301c-1.238,2.626-0.85,5.73,0.997,7.97l89.361,108.384v99.94c0,2.595,1.341,5.005,3.545,6.373c1.208,0.749,2.579,1.127,3.955,1.127c1.137,0,2.278-0.259,3.33-0.78l50.208-24.885c2.551-1.264,4.165-3.863,4.169-6.71l0.098-75.062l89.366-108.388C247.593,19.714,247.982,16.609,246.744,13.984z M143.097,122.873c-1.105,1.34-1.711,3.023-1.713,4.761l-0.096,73.103l-35.213,17.453v-90.546c0-1.741-0.605-3.428-1.713-4.771L23.404,24.682h200.651L143.097,122.873z"/>
    </symbol>
</svg>